<mxfile host="65bd71144e">
    <diagram id="T9uuaTeBy4bPSP1g8a4x" name="Page-1">
        <mxGraphModel dx="691" dy="421" grid="1" gridSize="10" guides="1" tooltips="1" connect="1" arrows="1" fold="1" page="1" pageScale="1" pageWidth="827" pageHeight="1169" background="#FFFFFF" math="0" shadow="0">
            <root>
                <mxCell id="0"/>
                <mxCell id="1" parent="0"/>
                <mxCell id="739" value="" style="endArrow=none;html=1;fontSize=12;fontColor=#0000FF;fillColor=#dae8fc;strokeColor=#6c8ebf;exitX=0;exitY=0;exitDx=0;exitDy=0;" edge="1" parent="1" source="738">
                    <mxGeometry width="50" height="50" relative="1" as="geometry">
                        <mxPoint x="450" y="150" as="sourcePoint"/>
                        <mxPoint x="470" y="180" as="targetPoint"/>
                    </mxGeometry>
                </mxCell>
                <mxCell id="705" value="" style="endArrow=none;dashed=1;html=1;fontSize=12;fontColor=#0000FF;entryX=0.5;entryY=1;entryDx=0;entryDy=0;fillColor=#dae8fc;strokeColor=#6c8ebf;" edge="1" parent="1" target="450">
                    <mxGeometry width="50" height="50" relative="1" as="geometry">
                        <mxPoint x="130" y="180" as="sourcePoint"/>
                        <mxPoint x="350" y="260" as="targetPoint"/>
                    </mxGeometry>
                </mxCell>
                <mxCell id="701" value="" style="endArrow=none;dashed=1;html=1;fontSize=12;fontColor=#0000FF;exitX=1;exitY=0.5;exitDx=0;exitDy=0;entryX=1;entryY=0.5;entryDx=0;entryDy=0;fillColor=#d5e8d4;strokeColor=#82b366;" edge="1" parent="1" source="266" target="502">
                    <mxGeometry width="50" height="50" relative="1" as="geometry">
                        <mxPoint x="350" y="330" as="sourcePoint"/>
                        <mxPoint x="400" y="280" as="targetPoint"/>
                    </mxGeometry>
                </mxCell>
                <mxCell id="263" value="A" style="rounded=0;whiteSpace=wrap;html=1;fontStyle=0;fontSize=12;fillColor=none;strokeColor=none;" parent="1" vertex="1">
                    <mxGeometry x="80" y="180" width="20" height="20" as="geometry"/>
                </mxCell>
                <mxCell id="264" value="B" style="rounded=0;whiteSpace=wrap;html=1;fontStyle=0;fontSize=12;fillColor=none;strokeColor=none;" parent="1" vertex="1">
                    <mxGeometry x="80" y="200" width="20" height="20" as="geometry"/>
                </mxCell>
                <mxCell id="265" value="C" style="rounded=0;whiteSpace=wrap;html=1;fontStyle=0;fontSize=12;fillColor=none;strokeColor=none;" parent="1" vertex="1">
                    <mxGeometry x="80" y="220" width="20" height="20" as="geometry"/>
                </mxCell>
                <mxCell id="266" value="D" style="rounded=0;whiteSpace=wrap;html=1;fontStyle=0;fontSize=12;fillColor=none;strokeColor=none;" parent="1" vertex="1">
                    <mxGeometry x="80" y="240" width="20" height="20" as="geometry"/>
                </mxCell>
                <mxCell id="267" value="E" style="rounded=0;whiteSpace=wrap;html=1;fontStyle=0;fontSize=12;fillColor=none;strokeColor=none;" parent="1" vertex="1">
                    <mxGeometry x="80" y="260" width="20" height="20" as="geometry"/>
                </mxCell>
                <mxCell id="268" value="F" style="rounded=0;whiteSpace=wrap;html=1;fontStyle=0;fontSize=12;fillColor=none;strokeColor=none;" parent="1" vertex="1">
                    <mxGeometry x="80" y="280" width="20" height="20" as="geometry"/>
                </mxCell>
                <mxCell id="269" value="G" style="rounded=0;whiteSpace=wrap;html=1;fontStyle=0;fontSize=12;fillColor=none;strokeColor=none;" parent="1" vertex="1">
                    <mxGeometry x="80" y="300" width="20" height="20" as="geometry"/>
                </mxCell>
                <mxCell id="270" value="H" style="rounded=0;whiteSpace=wrap;html=1;fontStyle=0;fontSize=12;fillColor=none;strokeColor=none;" parent="1" vertex="1">
                    <mxGeometry x="80" y="320" width="20" height="20" as="geometry"/>
                </mxCell>
                <mxCell id="271" value="A" style="rounded=0;whiteSpace=wrap;html=1;fontStyle=0;fontSize=12;fillColor=none;strokeColor=none;" parent="1" vertex="1">
                    <mxGeometry x="100" y="160" width="20" height="20" as="geometry"/>
                </mxCell>
                <mxCell id="272" value="B" style="rounded=0;whiteSpace=wrap;html=1;fontStyle=0;fontSize=12;fillColor=none;strokeColor=none;" parent="1" vertex="1">
                    <mxGeometry x="120" y="160" width="20" height="20" as="geometry"/>
                </mxCell>
                <mxCell id="273" value="C" style="rounded=0;whiteSpace=wrap;html=1;fontStyle=0;fontSize=12;fillColor=none;strokeColor=none;" parent="1" vertex="1">
                    <mxGeometry x="140" y="160" width="20" height="20" as="geometry"/>
                </mxCell>
                <mxCell id="274" value="D" style="rounded=0;whiteSpace=wrap;html=1;fontStyle=0;fontSize=12;fillColor=none;strokeColor=none;" parent="1" vertex="1">
                    <mxGeometry x="160" y="160" width="20" height="20" as="geometry"/>
                </mxCell>
                <mxCell id="275" value="E" style="rounded=0;whiteSpace=wrap;html=1;fontStyle=0;fontSize=12;fillColor=none;strokeColor=none;" parent="1" vertex="1">
                    <mxGeometry x="180" y="160" width="20" height="20" as="geometry"/>
                </mxCell>
                <mxCell id="276" value="F" style="rounded=0;whiteSpace=wrap;html=1;fontStyle=0;fontSize=12;fillColor=none;strokeColor=none;" parent="1" vertex="1">
                    <mxGeometry x="200" y="160" width="20" height="20" as="geometry"/>
                </mxCell>
                <mxCell id="277" value="G" style="rounded=0;whiteSpace=wrap;html=1;fontStyle=0;fontSize=12;fillColor=none;strokeColor=none;" parent="1" vertex="1">
                    <mxGeometry x="220" y="160" width="20" height="20" as="geometry"/>
                </mxCell>
                <mxCell id="278" value="H" style="rounded=0;whiteSpace=wrap;html=1;fontStyle=0;fontSize=12;fillColor=none;strokeColor=none;" parent="1" vertex="1">
                    <mxGeometry x="240" y="160" width="20" height="20" as="geometry"/>
                </mxCell>
                <mxCell id="279" value="•" style="rounded=0;whiteSpace=wrap;html=1;fontStyle=0;fontSize=12;fillColor=none;strokeColor=none;fontColor=#0000FF;" parent="1" vertex="1">
                    <mxGeometry x="100" y="180" width="20" height="20" as="geometry"/>
                </mxCell>
                <mxCell id="282" value="" style="rounded=0;whiteSpace=wrap;html=1;fontStyle=0;fontSize=12;fillColor=none;strokeColor=none;" parent="1" vertex="1">
                    <mxGeometry x="100" y="240" width="20" height="20" as="geometry"/>
                </mxCell>
                <mxCell id="283" value="" style="rounded=0;whiteSpace=wrap;html=1;fontStyle=0;fontSize=12;fillColor=none;strokeColor=none;" parent="1" vertex="1">
                    <mxGeometry x="100" y="260" width="20" height="20" as="geometry"/>
                </mxCell>
                <mxCell id="284" value="" style="rounded=0;whiteSpace=wrap;html=1;fontStyle=0;fontSize=12;fillColor=none;strokeColor=none;" parent="1" vertex="1">
                    <mxGeometry x="100" y="280" width="20" height="20" as="geometry"/>
                </mxCell>
                <mxCell id="285" value="" style="rounded=0;whiteSpace=wrap;html=1;fontStyle=0;fontSize=12;fillColor=none;strokeColor=none;" parent="1" vertex="1">
                    <mxGeometry x="100" y="300" width="20" height="20" as="geometry"/>
                </mxCell>
                <mxCell id="286" value="X" style="rounded=0;whiteSpace=wrap;html=1;fontStyle=0;fontSize=12;fillColor=none;strokeColor=none;" parent="1" vertex="1">
                    <mxGeometry x="100" y="320" width="20" height="20" as="geometry"/>
                </mxCell>
                <mxCell id="287" value="" style="rounded=0;whiteSpace=wrap;html=1;fontStyle=0;fontSize=12;fillColor=none;strokeColor=none;" parent="1" vertex="1">
                    <mxGeometry x="120" y="180" width="20" height="20" as="geometry"/>
                </mxCell>
                <mxCell id="288" value="•" style="rounded=0;whiteSpace=wrap;html=1;fontStyle=0;fontSize=12;fillColor=none;strokeColor=none;fontColor=#0000FF;" parent="1" vertex="1">
                    <mxGeometry x="120" y="200" width="20" height="20" as="geometry"/>
                </mxCell>
                <mxCell id="289" value="X" style="rounded=0;whiteSpace=wrap;html=1;fontStyle=0;fontSize=12;fillColor=none;strokeColor=none;" parent="1" vertex="1">
                    <mxGeometry x="120" y="220" width="20" height="20" as="geometry"/>
                </mxCell>
                <mxCell id="292" value="X" style="rounded=0;whiteSpace=wrap;html=1;fontStyle=0;fontSize=12;rotation=-180;fillColor=none;strokeColor=none;" parent="1" vertex="1">
                    <mxGeometry x="120" y="280" width="20" height="20" as="geometry"/>
                </mxCell>
                <mxCell id="293" value="X" style="rounded=0;whiteSpace=wrap;html=1;fontStyle=0;fontSize=12;fillColor=none;strokeColor=none;" parent="1" vertex="1">
                    <mxGeometry x="120" y="300" width="20" height="20" as="geometry"/>
                </mxCell>
                <mxCell id="294" value="" style="rounded=0;whiteSpace=wrap;html=1;fontStyle=0;fontSize=12;fillColor=none;strokeColor=none;" parent="1" vertex="1">
                    <mxGeometry x="120" y="320" width="20" height="20" as="geometry"/>
                </mxCell>
                <mxCell id="295" value="X" style="rounded=0;whiteSpace=wrap;html=1;fontStyle=0;fontSize=12;fillColor=none;strokeColor=none;" parent="1" vertex="1">
                    <mxGeometry x="140" y="180" width="20" height="20" as="geometry"/>
                </mxCell>
                <mxCell id="296" value="" style="rounded=0;whiteSpace=wrap;html=1;fontStyle=0;fontSize=12;fillColor=none;strokeColor=none;" parent="1" vertex="1">
                    <mxGeometry x="140" y="200" width="20" height="20" as="geometry"/>
                </mxCell>
                <mxCell id="297" value="•" style="rounded=0;whiteSpace=wrap;html=1;fontStyle=0;fontSize=12;fillColor=none;strokeColor=none;fontColor=#0000FF;" parent="1" vertex="1">
                    <mxGeometry x="140" y="220" width="20" height="20" as="geometry"/>
                </mxCell>
                <mxCell id="300" value="" style="rounded=0;whiteSpace=wrap;html=1;fontStyle=0;fontSize=12;fillColor=none;strokeColor=none;" parent="1" vertex="1">
                    <mxGeometry x="140" y="280" width="20" height="20" as="geometry"/>
                </mxCell>
                <mxCell id="301" value="" style="rounded=0;whiteSpace=wrap;html=1;fontStyle=0;fontSize=12;fillColor=none;strokeColor=none;" parent="1" vertex="1">
                    <mxGeometry x="140" y="300" width="20" height="20" as="geometry"/>
                </mxCell>
                <mxCell id="302" value="" style="rounded=0;whiteSpace=wrap;html=1;fontStyle=0;fontSize=12;fillColor=none;strokeColor=none;" parent="1" vertex="1">
                    <mxGeometry x="140" y="320" width="20" height="20" as="geometry"/>
                </mxCell>
                <mxCell id="303" value="" style="rounded=0;whiteSpace=wrap;html=1;fontStyle=0;fontSize=12;fillColor=none;strokeColor=none;" parent="1" vertex="1">
                    <mxGeometry x="160" y="180" width="20" height="20" as="geometry"/>
                </mxCell>
                <mxCell id="304" value="" style="rounded=0;whiteSpace=wrap;html=1;fontStyle=0;fontSize=12;fillColor=none;strokeColor=none;" parent="1" vertex="1">
                    <mxGeometry x="160" y="200" width="20" height="20" as="geometry"/>
                </mxCell>
                <mxCell id="305" value="" style="rounded=0;whiteSpace=wrap;html=1;fontStyle=0;fontSize=12;fillColor=none;strokeColor=none;" parent="1" vertex="1">
                    <mxGeometry x="160" y="220" width="20" height="20" as="geometry"/>
                </mxCell>
                <mxCell id="306" value="•" style="rounded=0;whiteSpace=wrap;html=1;fontStyle=0;fontSize=12;fillColor=none;strokeColor=none;fontColor=#0000FF;" parent="1" vertex="1">
                    <mxGeometry x="160" y="240" width="20" height="20" as="geometry"/>
                </mxCell>
                <mxCell id="307" value="" style="rounded=0;whiteSpace=wrap;html=1;fontStyle=0;fontSize=12;fillColor=none;strokeColor=none;" parent="1" vertex="1">
                    <mxGeometry x="160" y="260" width="20" height="20" as="geometry"/>
                </mxCell>
                <mxCell id="308" value="" style="rounded=0;whiteSpace=wrap;html=1;fontStyle=0;fontSize=12;fillColor=none;strokeColor=none;" parent="1" vertex="1">
                    <mxGeometry x="160" y="280" width="20" height="20" as="geometry"/>
                </mxCell>
                <mxCell id="310" value="X" style="rounded=0;whiteSpace=wrap;html=1;fontStyle=0;fontSize=12;fillColor=none;strokeColor=none;" parent="1" vertex="1">
                    <mxGeometry x="160" y="320" width="20" height="20" as="geometry"/>
                </mxCell>
                <mxCell id="311" value="" style="rounded=0;whiteSpace=wrap;html=1;fontStyle=0;fontSize=12;fillColor=none;strokeColor=none;" parent="1" vertex="1">
                    <mxGeometry x="180" y="180" width="20" height="20" as="geometry"/>
                </mxCell>
                <mxCell id="312" value="" style="rounded=0;whiteSpace=wrap;html=1;fontStyle=0;fontSize=12;fillColor=none;strokeColor=none;" parent="1" vertex="1">
                    <mxGeometry x="180" y="200" width="20" height="20" as="geometry"/>
                </mxCell>
                <mxCell id="313" value="" style="rounded=0;whiteSpace=wrap;html=1;fontStyle=0;fontSize=12;fillColor=none;strokeColor=none;" parent="1" vertex="1">
                    <mxGeometry x="180" y="220" width="20" height="20" as="geometry"/>
                </mxCell>
                <mxCell id="314" value="X" style="rounded=0;whiteSpace=wrap;html=1;fontStyle=0;fontSize=12;fillColor=none;strokeColor=none;" parent="1" vertex="1">
                    <mxGeometry x="180" y="240" width="20" height="20" as="geometry"/>
                </mxCell>
                <mxCell id="315" value="•" style="rounded=0;whiteSpace=wrap;html=1;fontStyle=0;fontSize=12;fillColor=none;strokeColor=none;fontColor=#0000FF;" parent="1" vertex="1">
                    <mxGeometry x="180" y="260" width="20" height="20" as="geometry"/>
                </mxCell>
                <mxCell id="317" value="" style="rounded=0;whiteSpace=wrap;html=1;fontStyle=0;fontSize=12;fillColor=none;strokeColor=none;" parent="1" vertex="1">
                    <mxGeometry x="180" y="300" width="20" height="20" as="geometry"/>
                </mxCell>
                <mxCell id="318" value="" style="rounded=0;whiteSpace=wrap;html=1;fontStyle=0;fontSize=12;fillColor=none;strokeColor=none;" parent="1" vertex="1">
                    <mxGeometry x="180" y="320" width="20" height="20" as="geometry"/>
                </mxCell>
                <mxCell id="319" value="" style="rounded=0;whiteSpace=wrap;html=1;fontStyle=0;fontSize=12;fillColor=none;strokeColor=none;" parent="1" vertex="1">
                    <mxGeometry x="200" y="180" width="20" height="20" as="geometry"/>
                </mxCell>
                <mxCell id="320" value="" style="rounded=0;whiteSpace=wrap;html=1;fontStyle=0;fontSize=12;fillColor=none;strokeColor=none;" parent="1" vertex="1">
                    <mxGeometry x="200" y="200" width="20" height="20" as="geometry"/>
                </mxCell>
                <mxCell id="321" value="" style="rounded=0;whiteSpace=wrap;html=1;fontStyle=0;fontSize=12;fillColor=none;strokeColor=none;" parent="1" vertex="1">
                    <mxGeometry x="200" y="220" width="20" height="20" as="geometry"/>
                </mxCell>
                <mxCell id="322" value="X" style="rounded=0;whiteSpace=wrap;html=1;fontStyle=0;fontSize=12;fillColor=none;strokeColor=none;" parent="1" vertex="1">
                    <mxGeometry x="200" y="240" width="20" height="20" as="geometry"/>
                </mxCell>
                <mxCell id="323" value="X" style="rounded=0;whiteSpace=wrap;html=1;fontStyle=0;fontSize=12;fillColor=none;strokeColor=none;" parent="1" vertex="1">
                    <mxGeometry x="200" y="260" width="20" height="20" as="geometry"/>
                </mxCell>
                <mxCell id="324" value="•" style="rounded=0;whiteSpace=wrap;html=1;fontStyle=0;fontSize=12;fillColor=none;strokeColor=none;fontColor=#0000FF;" parent="1" vertex="1">
                    <mxGeometry x="200" y="280" width="20" height="20" as="geometry"/>
                </mxCell>
                <mxCell id="326" value="" style="rounded=0;whiteSpace=wrap;html=1;fontStyle=0;fontSize=12;fillColor=none;strokeColor=none;" parent="1" vertex="1">
                    <mxGeometry x="200" y="320" width="20" height="20" as="geometry"/>
                </mxCell>
                <mxCell id="327" value="" style="rounded=0;whiteSpace=wrap;html=1;fontStyle=0;fontSize=12;fillColor=none;strokeColor=none;" parent="1" vertex="1">
                    <mxGeometry x="220" y="180" width="20" height="20" as="geometry"/>
                </mxCell>
                <mxCell id="328" value="" style="rounded=0;whiteSpace=wrap;html=1;fontStyle=0;fontSize=12;fillColor=none;strokeColor=none;" parent="1" vertex="1">
                    <mxGeometry x="220" y="200" width="20" height="20" as="geometry"/>
                </mxCell>
                <mxCell id="330" value="" style="rounded=0;whiteSpace=wrap;html=1;fontStyle=0;fontSize=12;fillColor=none;strokeColor=none;" parent="1" vertex="1">
                    <mxGeometry x="220" y="240" width="20" height="20" as="geometry"/>
                </mxCell>
                <mxCell id="331" value="" style="rounded=0;whiteSpace=wrap;html=1;fontStyle=0;fontSize=12;fillColor=none;strokeColor=none;" parent="1" vertex="1">
                    <mxGeometry x="220" y="260" width="20" height="20" as="geometry"/>
                </mxCell>
                <mxCell id="332" value="" style="rounded=0;whiteSpace=wrap;html=1;fontStyle=0;fontSize=12;fillColor=none;strokeColor=none;" parent="1" vertex="1">
                    <mxGeometry x="220" y="280" width="20" height="20" as="geometry"/>
                </mxCell>
                <mxCell id="333" value="•" style="rounded=0;whiteSpace=wrap;html=1;fontStyle=0;fontSize=12;fillColor=none;strokeColor=none;fontColor=#0000FF;" parent="1" vertex="1">
                    <mxGeometry x="220" y="300" width="20" height="20" as="geometry"/>
                </mxCell>
                <mxCell id="335" value="" style="rounded=0;whiteSpace=wrap;html=1;fontStyle=0;fontSize=12;fillColor=none;strokeColor=none;" parent="1" vertex="1">
                    <mxGeometry x="240" y="180" width="20" height="20" as="geometry"/>
                </mxCell>
                <mxCell id="336" value="" style="rounded=0;whiteSpace=wrap;html=1;fontStyle=0;fontSize=12;fillColor=none;strokeColor=none;" parent="1" vertex="1">
                    <mxGeometry x="240" y="200" width="20" height="20" as="geometry"/>
                </mxCell>
                <mxCell id="337" value="" style="rounded=0;whiteSpace=wrap;html=1;fontStyle=0;fontSize=12;fillColor=none;strokeColor=none;" parent="1" vertex="1">
                    <mxGeometry x="240" y="220" width="20" height="20" as="geometry"/>
                </mxCell>
                <mxCell id="338" value="" style="rounded=0;whiteSpace=wrap;html=1;fontStyle=0;fontSize=12;fillColor=none;strokeColor=none;" parent="1" vertex="1">
                    <mxGeometry x="240" y="240" width="20" height="20" as="geometry"/>
                </mxCell>
                <mxCell id="339" value="X" style="rounded=0;whiteSpace=wrap;html=1;fontStyle=0;fontSize=12;fillColor=none;strokeColor=none;" parent="1" vertex="1">
                    <mxGeometry x="240" y="260" width="20" height="20" as="geometry"/>
                </mxCell>
                <mxCell id="340" value="" style="rounded=0;whiteSpace=wrap;html=1;fontStyle=0;fontSize=12;fillColor=none;strokeColor=none;" parent="1" vertex="1">
                    <mxGeometry x="240" y="280" width="20" height="20" as="geometry"/>
                </mxCell>
                <mxCell id="341" value="" style="rounded=0;whiteSpace=wrap;html=1;fontStyle=0;fontSize=12;fillColor=none;strokeColor=none;" parent="1" vertex="1">
                    <mxGeometry x="240" y="300" width="20" height="20" as="geometry"/>
                </mxCell>
                <mxCell id="342" value="•" style="rounded=0;whiteSpace=wrap;html=1;fontStyle=0;fontSize=12;fillColor=none;strokeColor=none;fontColor=#0000FF;" parent="1" vertex="1">
                    <mxGeometry x="240" y="320" width="20" height="20" as="geometry"/>
                </mxCell>
                <mxCell id="435" value="I" style="rounded=0;whiteSpace=wrap;html=1;fontStyle=0;fontSize=12;fillColor=none;strokeColor=none;" vertex="1" parent="1">
                    <mxGeometry x="80" y="340" width="20" height="20" as="geometry"/>
                </mxCell>
                <mxCell id="436" value="J" style="rounded=0;whiteSpace=wrap;html=1;fontStyle=0;fontSize=12;fillColor=none;strokeColor=none;" vertex="1" parent="1">
                    <mxGeometry x="80" y="360" width="20" height="20" as="geometry"/>
                </mxCell>
                <mxCell id="437" value="K" style="rounded=0;whiteSpace=wrap;html=1;fontStyle=0;fontSize=12;fillColor=none;strokeColor=none;" vertex="1" parent="1">
                    <mxGeometry x="80" y="380" width="20" height="20" as="geometry"/>
                </mxCell>
                <mxCell id="438" value="L" style="rounded=0;whiteSpace=wrap;html=1;fontStyle=0;fontSize=12;fillColor=none;strokeColor=none;" vertex="1" parent="1">
                    <mxGeometry x="80" y="400" width="20" height="20" as="geometry"/>
                </mxCell>
                <mxCell id="439" value="I" style="rounded=0;whiteSpace=wrap;html=1;fontStyle=0;fontSize=12;fillColor=none;strokeColor=none;" vertex="1" parent="1">
                    <mxGeometry x="260" y="160" width="20" height="20" as="geometry"/>
                </mxCell>
                <mxCell id="440" value="J" style="rounded=0;whiteSpace=wrap;html=1;fontStyle=0;fontSize=12;fillColor=none;strokeColor=none;" vertex="1" parent="1">
                    <mxGeometry x="280" y="160" width="20" height="20" as="geometry"/>
                </mxCell>
                <mxCell id="441" value="K" style="rounded=0;whiteSpace=wrap;html=1;fontStyle=0;fontSize=12;fillColor=none;strokeColor=none;" vertex="1" parent="1">
                    <mxGeometry x="300" y="160" width="20" height="20" as="geometry"/>
                </mxCell>
                <mxCell id="442" value="L" style="rounded=0;whiteSpace=wrap;html=1;fontStyle=0;fontSize=12;fillColor=none;strokeColor=none;" vertex="1" parent="1">
                    <mxGeometry x="320" y="160" width="20" height="20" as="geometry"/>
                </mxCell>
                <mxCell id="443" value="" style="rounded=0;whiteSpace=wrap;html=1;fontStyle=0;fontSize=12;fillColor=none;strokeColor=none;" vertex="1" parent="1">
                    <mxGeometry x="100" y="340" width="20" height="20" as="geometry"/>
                </mxCell>
                <mxCell id="444" value="" style="rounded=0;whiteSpace=wrap;html=1;fontStyle=0;fontSize=12;fillColor=none;strokeColor=none;" vertex="1" parent="1">
                    <mxGeometry x="100" y="360" width="20" height="20" as="geometry"/>
                </mxCell>
                <mxCell id="445" value="" style="rounded=0;whiteSpace=wrap;html=1;fontStyle=0;fontSize=12;fillColor=none;strokeColor=none;" vertex="1" parent="1">
                    <mxGeometry x="100" y="380" width="20" height="20" as="geometry"/>
                </mxCell>
                <mxCell id="446" value="X" style="rounded=0;whiteSpace=wrap;html=1;fontStyle=0;fontSize=12;fillColor=none;strokeColor=none;" vertex="1" parent="1">
                    <mxGeometry x="100" y="400" width="20" height="20" as="geometry"/>
                </mxCell>
                <mxCell id="447" value="" style="rounded=0;whiteSpace=wrap;html=1;fontStyle=0;fontSize=12;fillColor=none;strokeColor=none;" vertex="1" parent="1">
                    <mxGeometry x="120" y="340" width="20" height="20" as="geometry"/>
                </mxCell>
                <mxCell id="448" value="X" style="rounded=0;whiteSpace=wrap;html=1;fontStyle=0;fontSize=12;fillColor=none;strokeColor=none;" vertex="1" parent="1">
                    <mxGeometry x="120" y="360" width="20" height="20" as="geometry"/>
                </mxCell>
                <mxCell id="449" value="X" style="rounded=0;whiteSpace=wrap;html=1;fontStyle=0;fontSize=12;fillColor=none;strokeColor=none;" vertex="1" parent="1">
                    <mxGeometry x="120" y="380" width="20" height="20" as="geometry"/>
                </mxCell>
                <mxCell id="450" value="" style="rounded=0;whiteSpace=wrap;html=1;fontStyle=0;fontSize=12;fillColor=none;strokeColor=none;" vertex="1" parent="1">
                    <mxGeometry x="120" y="400" width="20" height="20" as="geometry"/>
                </mxCell>
                <mxCell id="451" value="X" style="rounded=0;whiteSpace=wrap;html=1;fontStyle=0;fontSize=12;fillColor=none;strokeColor=none;" vertex="1" parent="1">
                    <mxGeometry x="140" y="340" width="20" height="20" as="geometry"/>
                </mxCell>
                <mxCell id="452" value="X" style="rounded=0;whiteSpace=wrap;html=1;fontStyle=0;fontSize=12;fillColor=none;strokeColor=none;" vertex="1" parent="1">
                    <mxGeometry x="140" y="360" width="20" height="20" as="geometry"/>
                </mxCell>
                <mxCell id="453" value="X" style="rounded=0;whiteSpace=wrap;html=1;fontStyle=0;fontSize=12;fillColor=none;strokeColor=none;" vertex="1" parent="1">
                    <mxGeometry x="140" y="380" width="20" height="20" as="geometry"/>
                </mxCell>
                <mxCell id="454" value="" style="rounded=0;whiteSpace=wrap;html=1;fontStyle=0;fontSize=12;fillColor=none;strokeColor=none;" vertex="1" parent="1">
                    <mxGeometry x="140" y="400" width="20" height="20" as="geometry"/>
                </mxCell>
                <mxCell id="455" value="" style="rounded=0;whiteSpace=wrap;html=1;fontStyle=0;fontSize=12;fillColor=none;strokeColor=none;" vertex="1" parent="1">
                    <mxGeometry x="160" y="340" width="20" height="20" as="geometry"/>
                </mxCell>
                <mxCell id="456" value="" style="rounded=0;whiteSpace=wrap;html=1;fontStyle=0;fontSize=12;fillColor=none;strokeColor=none;" vertex="1" parent="1">
                    <mxGeometry x="160" y="360" width="20" height="20" as="geometry"/>
                </mxCell>
                <mxCell id="457" value="" style="rounded=0;whiteSpace=wrap;html=1;fontStyle=0;fontSize=12;fillColor=none;strokeColor=none;" vertex="1" parent="1">
                    <mxGeometry x="160" y="380" width="20" height="20" as="geometry"/>
                </mxCell>
                <mxCell id="458" value="" style="rounded=0;whiteSpace=wrap;html=1;fontStyle=0;fontSize=12;fillColor=none;strokeColor=none;" vertex="1" parent="1">
                    <mxGeometry x="160" y="400" width="20" height="20" as="geometry"/>
                </mxCell>
                <mxCell id="460" value="" style="rounded=0;whiteSpace=wrap;html=1;fontStyle=0;fontSize=12;fillColor=none;strokeColor=none;" vertex="1" parent="1">
                    <mxGeometry x="180" y="360" width="20" height="20" as="geometry"/>
                </mxCell>
                <mxCell id="461" value="" style="rounded=0;whiteSpace=wrap;html=1;fontStyle=0;fontSize=12;fillColor=none;strokeColor=none;" vertex="1" parent="1">
                    <mxGeometry x="180" y="380" width="20" height="20" as="geometry"/>
                </mxCell>
                <mxCell id="462" value="" style="rounded=0;whiteSpace=wrap;html=1;fontStyle=0;fontSize=12;fillColor=none;strokeColor=none;" vertex="1" parent="1">
                    <mxGeometry x="180" y="400" width="20" height="20" as="geometry"/>
                </mxCell>
                <mxCell id="463" value="X" style="rounded=0;whiteSpace=wrap;html=1;fontStyle=0;fontSize=12;fillColor=none;strokeColor=none;" vertex="1" parent="1">
                    <mxGeometry x="200" y="340" width="20" height="20" as="geometry"/>
                </mxCell>
                <mxCell id="464" value="" style="rounded=0;whiteSpace=wrap;html=1;fontStyle=0;fontSize=12;fillColor=none;strokeColor=none;" vertex="1" parent="1">
                    <mxGeometry x="200" y="360" width="20" height="20" as="geometry"/>
                </mxCell>
                <mxCell id="465" value="" style="rounded=0;whiteSpace=wrap;html=1;fontStyle=0;fontSize=12;fillColor=none;strokeColor=none;" vertex="1" parent="1">
                    <mxGeometry x="200" y="380" width="20" height="20" as="geometry"/>
                </mxCell>
                <mxCell id="466" value="" style="rounded=0;whiteSpace=wrap;html=1;fontStyle=0;fontSize=12;fillColor=none;strokeColor=none;" vertex="1" parent="1">
                    <mxGeometry x="200" y="400" width="20" height="20" as="geometry"/>
                </mxCell>
                <mxCell id="467" value="" style="rounded=0;whiteSpace=wrap;html=1;fontStyle=0;fontSize=12;fillColor=none;strokeColor=none;" vertex="1" parent="1">
                    <mxGeometry x="220" y="340" width="20" height="20" as="geometry"/>
                </mxCell>
                <mxCell id="468" value="" style="rounded=0;whiteSpace=wrap;html=1;fontStyle=0;fontSize=12;fillColor=none;strokeColor=none;" vertex="1" parent="1">
                    <mxGeometry x="220" y="360" width="20" height="20" as="geometry"/>
                </mxCell>
                <mxCell id="469" value="" style="rounded=0;whiteSpace=wrap;html=1;fontStyle=0;fontSize=12;fillColor=none;strokeColor=none;" vertex="1" parent="1">
                    <mxGeometry x="220" y="380" width="20" height="20" as="geometry"/>
                </mxCell>
                <mxCell id="470" value="" style="rounded=0;whiteSpace=wrap;html=1;fontStyle=0;fontSize=12;fillColor=none;strokeColor=none;" vertex="1" parent="1">
                    <mxGeometry x="220" y="400" width="20" height="20" as="geometry"/>
                </mxCell>
                <mxCell id="471" value="" style="rounded=0;whiteSpace=wrap;html=1;fontStyle=0;fontSize=12;fillColor=none;strokeColor=none;" vertex="1" parent="1">
                    <mxGeometry x="240" y="340" width="20" height="20" as="geometry"/>
                </mxCell>
                <mxCell id="472" value="" style="rounded=0;whiteSpace=wrap;html=1;fontStyle=0;fontSize=12;fillColor=none;strokeColor=none;" vertex="1" parent="1">
                    <mxGeometry x="240" y="360" width="20" height="20" as="geometry"/>
                </mxCell>
                <mxCell id="473" value="" style="rounded=0;whiteSpace=wrap;html=1;fontStyle=0;fontSize=12;fillColor=none;strokeColor=none;" vertex="1" parent="1">
                    <mxGeometry x="240" y="380" width="20" height="20" as="geometry"/>
                </mxCell>
                <mxCell id="474" value="" style="rounded=0;whiteSpace=wrap;html=1;fontStyle=0;fontSize=12;fillColor=none;strokeColor=none;" vertex="1" parent="1">
                    <mxGeometry x="240" y="400" width="20" height="20" as="geometry"/>
                </mxCell>
                <mxCell id="475" value="" style="rounded=0;whiteSpace=wrap;html=1;fontStyle=0;fontSize=12;fillColor=none;strokeColor=none;" vertex="1" parent="1">
                    <mxGeometry x="260" y="180" width="20" height="20" as="geometry"/>
                </mxCell>
                <mxCell id="476" value="" style="rounded=0;whiteSpace=wrap;html=1;fontStyle=0;fontSize=12;fillColor=none;strokeColor=none;" vertex="1" parent="1">
                    <mxGeometry x="260" y="200" width="20" height="20" as="geometry"/>
                </mxCell>
                <mxCell id="477" value="" style="rounded=0;whiteSpace=wrap;html=1;fontStyle=0;fontSize=12;fillColor=none;strokeColor=none;" vertex="1" parent="1">
                    <mxGeometry x="260" y="220" width="20" height="20" as="geometry"/>
                </mxCell>
                <mxCell id="478" value="" style="rounded=0;whiteSpace=wrap;html=1;fontStyle=0;fontSize=12;fillColor=none;strokeColor=none;" vertex="1" parent="1">
                    <mxGeometry x="260" y="240" width="20" height="20" as="geometry"/>
                </mxCell>
                <mxCell id="481" value="" style="rounded=0;whiteSpace=wrap;html=1;fontStyle=0;fontSize=12;fillColor=none;strokeColor=none;" vertex="1" parent="1">
                    <mxGeometry x="260" y="300" width="20" height="20" as="geometry"/>
                </mxCell>
                <mxCell id="482" value="X" style="rounded=0;whiteSpace=wrap;html=1;fontStyle=0;fontSize=12;fillColor=none;strokeColor=none;" vertex="1" parent="1">
                    <mxGeometry x="260" y="320" width="20" height="20" as="geometry"/>
                </mxCell>
                <mxCell id="483" value="" style="rounded=0;whiteSpace=wrap;html=1;fontStyle=0;fontSize=12;fillColor=none;strokeColor=none;" vertex="1" parent="1">
                    <mxGeometry x="280" y="180" width="20" height="20" as="geometry"/>
                </mxCell>
                <mxCell id="484" value="" style="rounded=0;whiteSpace=wrap;html=1;fontStyle=0;fontSize=12;fillColor=none;strokeColor=none;" vertex="1" parent="1">
                    <mxGeometry x="280" y="200" width="20" height="20" as="geometry"/>
                </mxCell>
                <mxCell id="485" value="" style="rounded=0;whiteSpace=wrap;html=1;fontStyle=0;fontSize=12;fillColor=none;strokeColor=none;" vertex="1" parent="1">
                    <mxGeometry x="280" y="220" width="20" height="20" as="geometry"/>
                </mxCell>
                <mxCell id="486" value="" style="rounded=0;whiteSpace=wrap;html=1;fontStyle=0;fontSize=12;fillColor=none;strokeColor=none;" vertex="1" parent="1">
                    <mxGeometry x="280" y="240" width="20" height="20" as="geometry"/>
                </mxCell>
                <mxCell id="487" value="" style="rounded=0;whiteSpace=wrap;html=1;fontStyle=0;fontSize=12;fillColor=none;strokeColor=none;" vertex="1" parent="1">
                    <mxGeometry x="280" y="260" width="20" height="20" as="geometry"/>
                </mxCell>
                <mxCell id="490" value="" style="rounded=0;whiteSpace=wrap;html=1;fontStyle=0;fontSize=12;fillColor=none;strokeColor=none;" vertex="1" parent="1">
                    <mxGeometry x="280" y="320" width="20" height="20" as="geometry"/>
                </mxCell>
                <mxCell id="491" value="" style="rounded=0;whiteSpace=wrap;html=1;fontStyle=0;fontSize=12;fillColor=none;strokeColor=none;" vertex="1" parent="1">
                    <mxGeometry x="300" y="180" width="20" height="20" as="geometry"/>
                </mxCell>
                <mxCell id="492" value="" style="rounded=0;whiteSpace=wrap;html=1;fontStyle=0;fontSize=12;fillColor=none;strokeColor=none;" vertex="1" parent="1">
                    <mxGeometry x="300" y="200" width="20" height="20" as="geometry"/>
                </mxCell>
                <mxCell id="494" value="" style="rounded=0;whiteSpace=wrap;html=1;fontStyle=0;fontSize=12;fillColor=none;strokeColor=none;" vertex="1" parent="1">
                    <mxGeometry x="300" y="240" width="20" height="20" as="geometry"/>
                </mxCell>
                <mxCell id="495" value="X" style="rounded=0;whiteSpace=wrap;html=1;fontStyle=0;fontSize=12;fillColor=none;strokeColor=none;" vertex="1" parent="1">
                    <mxGeometry x="300" y="260" width="20" height="20" as="geometry"/>
                </mxCell>
                <mxCell id="496" value="" style="rounded=0;whiteSpace=wrap;html=1;fontStyle=0;fontSize=12;fillColor=none;strokeColor=none;" vertex="1" parent="1">
                    <mxGeometry x="300" y="280" width="20" height="20" as="geometry"/>
                </mxCell>
                <mxCell id="499" value="" style="rounded=0;whiteSpace=wrap;html=1;fontStyle=0;fontSize=12;fillColor=none;strokeColor=none;" vertex="1" parent="1">
                    <mxGeometry x="320" y="180" width="20" height="20" as="geometry"/>
                </mxCell>
                <mxCell id="500" value="" style="rounded=0;whiteSpace=wrap;html=1;fontStyle=0;fontSize=12;fillColor=none;strokeColor=none;" vertex="1" parent="1">
                    <mxGeometry x="320" y="200" width="20" height="20" as="geometry"/>
                </mxCell>
                <mxCell id="501" value="" style="rounded=0;whiteSpace=wrap;html=1;fontStyle=0;fontSize=12;fillColor=none;strokeColor=none;" vertex="1" parent="1">
                    <mxGeometry x="320" y="220" width="20" height="20" as="geometry"/>
                </mxCell>
                <mxCell id="502" value="X" style="rounded=0;whiteSpace=wrap;html=1;fontStyle=0;fontSize=12;fillColor=none;strokeColor=none;" vertex="1" parent="1">
                    <mxGeometry x="320" y="240" width="20" height="20" as="geometry"/>
                </mxCell>
                <mxCell id="503" value="" style="rounded=0;whiteSpace=wrap;html=1;fontStyle=0;fontSize=12;fillColor=none;strokeColor=none;" vertex="1" parent="1">
                    <mxGeometry x="320" y="260" width="20" height="20" as="geometry"/>
                </mxCell>
                <mxCell id="504" value="X" style="rounded=0;whiteSpace=wrap;html=1;fontStyle=0;fontSize=12;fillColor=none;strokeColor=none;" vertex="1" parent="1">
                    <mxGeometry x="320" y="280" width="20" height="20" as="geometry"/>
                </mxCell>
                <mxCell id="505" value="" style="rounded=0;whiteSpace=wrap;html=1;fontStyle=0;fontSize=12;fillColor=none;strokeColor=none;" vertex="1" parent="1">
                    <mxGeometry x="320" y="300" width="20" height="20" as="geometry"/>
                </mxCell>
                <mxCell id="507" value="•" style="rounded=0;whiteSpace=wrap;html=1;fontStyle=0;fontSize=12;fillColor=none;strokeColor=none;fontColor=#0000FF;" vertex="1" parent="1">
                    <mxGeometry x="260" y="340" width="20" height="20" as="geometry"/>
                </mxCell>
                <mxCell id="508" value="" style="rounded=0;whiteSpace=wrap;html=1;fontStyle=0;fontSize=12;fillColor=none;strokeColor=none;" vertex="1" parent="1">
                    <mxGeometry x="260" y="360" width="20" height="20" as="geometry"/>
                </mxCell>
                <mxCell id="509" value="" style="rounded=0;whiteSpace=wrap;html=1;fontStyle=0;fontSize=12;fillColor=none;strokeColor=none;" vertex="1" parent="1">
                    <mxGeometry x="260" y="380" width="20" height="20" as="geometry"/>
                </mxCell>
                <mxCell id="510" value="X" style="rounded=0;whiteSpace=wrap;html=1;fontStyle=0;fontSize=12;fillColor=none;strokeColor=none;" vertex="1" parent="1">
                    <mxGeometry x="260" y="400" width="20" height="20" as="geometry"/>
                </mxCell>
                <mxCell id="511" value="X" style="rounded=0;whiteSpace=wrap;html=1;fontStyle=0;fontSize=12;fillColor=none;strokeColor=none;" vertex="1" parent="1">
                    <mxGeometry x="280" y="340" width="20" height="20" as="geometry"/>
                </mxCell>
                <mxCell id="512" value="•" style="rounded=0;whiteSpace=wrap;html=1;fontStyle=0;fontSize=12;fillColor=none;strokeColor=none;fontColor=#0000FF;" vertex="1" parent="1">
                    <mxGeometry x="280" y="360" width="20" height="20" as="geometry"/>
                </mxCell>
                <mxCell id="513" value="" style="rounded=0;whiteSpace=wrap;html=1;fontStyle=0;fontSize=12;fillColor=none;strokeColor=none;" vertex="1" parent="1">
                    <mxGeometry x="280" y="380" width="20" height="20" as="geometry"/>
                </mxCell>
                <mxCell id="514" value="X" style="rounded=0;whiteSpace=wrap;html=1;fontStyle=0;fontSize=12;fillColor=none;strokeColor=none;" vertex="1" parent="1">
                    <mxGeometry x="280" y="400" width="20" height="20" as="geometry"/>
                </mxCell>
                <mxCell id="515" value="" style="rounded=0;whiteSpace=wrap;html=1;fontStyle=0;fontSize=12;fillColor=none;strokeColor=none;" vertex="1" parent="1">
                    <mxGeometry x="300" y="340" width="20" height="20" as="geometry"/>
                </mxCell>
                <mxCell id="516" value="X" style="rounded=0;whiteSpace=wrap;html=1;fontStyle=0;fontSize=12;fillColor=none;strokeColor=none;" vertex="1" parent="1">
                    <mxGeometry x="300" y="360" width="20" height="20" as="geometry"/>
                </mxCell>
                <mxCell id="517" value="•" style="rounded=0;whiteSpace=wrap;html=1;fontStyle=0;fontSize=12;fillColor=none;strokeColor=none;fontColor=#0000FF;" vertex="1" parent="1">
                    <mxGeometry x="300" y="380" width="20" height="20" as="geometry"/>
                </mxCell>
                <mxCell id="518" value="X" style="rounded=0;whiteSpace=wrap;html=1;fontStyle=0;fontSize=12;fillColor=none;strokeColor=none;" vertex="1" parent="1">
                    <mxGeometry x="300" y="400" width="20" height="20" as="geometry"/>
                </mxCell>
                <mxCell id="519" value="" style="rounded=0;whiteSpace=wrap;html=1;fontStyle=0;fontSize=12;fillColor=none;strokeColor=none;" vertex="1" parent="1">
                    <mxGeometry x="320" y="340" width="20" height="20" as="geometry"/>
                </mxCell>
                <mxCell id="520" value="X" style="rounded=0;whiteSpace=wrap;html=1;fontStyle=0;fontSize=12;fillColor=none;strokeColor=none;" vertex="1" parent="1">
                    <mxGeometry x="320" y="360" width="20" height="20" as="geometry"/>
                </mxCell>
                <mxCell id="521" value="" style="rounded=0;whiteSpace=wrap;html=1;fontStyle=0;fontSize=12;fillColor=none;strokeColor=none;" vertex="1" parent="1">
                    <mxGeometry x="320" y="380" width="20" height="20" as="geometry"/>
                </mxCell>
                <mxCell id="522" value="•" style="rounded=0;whiteSpace=wrap;html=1;fontStyle=0;fontSize=12;fillColor=none;strokeColor=none;fontColor=#0000FF;" vertex="1" parent="1">
                    <mxGeometry x="320" y="400" width="20" height="20" as="geometry"/>
                </mxCell>
                <mxCell id="523" value="" style="rounded=0;whiteSpace=wrap;html=1;fontStyle=0;fontSize=12;fillColor=none;strokeColor=none;" vertex="1" parent="1">
                    <mxGeometry x="120" y="260" width="20" height="20" as="geometry"/>
                </mxCell>
                <mxCell id="525" value="" style="rounded=0;whiteSpace=wrap;html=1;fontStyle=0;fontSize=12;fillColor=none;strokeColor=none;" vertex="1" parent="1">
                    <mxGeometry x="140" y="260" width="20" height="20" as="geometry"/>
                </mxCell>
                <mxCell id="526" value="" style="rounded=0;whiteSpace=wrap;html=1;fontStyle=0;fontSize=12;fillColor=none;strokeColor=none;" vertex="1" parent="1">
                    <mxGeometry x="140" y="240" width="20" height="20" as="geometry"/>
                </mxCell>
                <mxCell id="527" value="" style="rounded=0;whiteSpace=wrap;html=1;fontStyle=0;fontSize=12;fillColor=none;strokeColor=none;" vertex="1" parent="1">
                    <mxGeometry x="100" y="220" width="20" height="20" as="geometry"/>
                </mxCell>
                <mxCell id="528" value="" style="rounded=0;whiteSpace=wrap;html=1;fontStyle=0;fontSize=12;fillColor=none;strokeColor=none;" vertex="1" parent="1">
                    <mxGeometry x="100" y="200" width="20" height="20" as="geometry"/>
                </mxCell>
                <mxCell id="529" value="" style="rounded=0;whiteSpace=wrap;html=1;fontStyle=0;fontSize=12;fillColor=none;strokeColor=none;" vertex="1" parent="1">
                    <mxGeometry x="260" y="260" width="20" height="20" as="geometry"/>
                </mxCell>
                <mxCell id="530" value="X" style="rounded=0;whiteSpace=wrap;html=1;fontStyle=0;fontSize=12;fillColor=none;strokeColor=none;" vertex="1" parent="1">
                    <mxGeometry x="260" y="280" width="20" height="20" as="geometry"/>
                </mxCell>
                <mxCell id="531" value="" style="rounded=0;whiteSpace=wrap;html=1;fontStyle=0;fontSize=12;fillColor=none;strokeColor=none;" vertex="1" parent="1">
                    <mxGeometry x="280" y="280" width="20" height="20" as="geometry"/>
                </mxCell>
                <mxCell id="532" value="" style="rounded=0;whiteSpace=wrap;html=1;fontStyle=0;fontSize=12;fillColor=none;strokeColor=none;" vertex="1" parent="1">
                    <mxGeometry x="280" y="300" width="20" height="20" as="geometry"/>
                </mxCell>
                <mxCell id="533" value="X" style="rounded=0;whiteSpace=wrap;html=1;fontStyle=0;fontSize=12;fillColor=none;strokeColor=none;" vertex="1" parent="1">
                    <mxGeometry x="300" y="300" width="20" height="20" as="geometry"/>
                </mxCell>
                <mxCell id="534" value="X" style="rounded=0;whiteSpace=wrap;html=1;fontStyle=0;fontSize=12;fillColor=none;strokeColor=none;" vertex="1" parent="1">
                    <mxGeometry x="300" y="320" width="20" height="20" as="geometry"/>
                </mxCell>
                <mxCell id="535" value="" style="rounded=0;whiteSpace=wrap;html=1;fontStyle=0;fontSize=12;fillColor=none;strokeColor=none;" vertex="1" parent="1">
                    <mxGeometry x="320" y="320" width="20" height="20" as="geometry"/>
                </mxCell>
                <mxCell id="536" value="" style="endArrow=none;html=1;fontSize=12;fontColor=#0000FF;exitX=1;exitY=1;exitDx=0;exitDy=0;entryX=0;entryY=0;entryDx=0;entryDy=0;" edge="1" parent="1" source="438" target="271">
                    <mxGeometry width="50" height="50" relative="1" as="geometry">
                        <mxPoint x="160" y="330" as="sourcePoint"/>
                        <mxPoint x="210" y="280" as="targetPoint"/>
                    </mxGeometry>
                </mxCell>
                <mxCell id="537" value="" style="endArrow=none;html=1;fontSize=12;fontColor=#0000FF;exitX=1;exitY=1;exitDx=0;exitDy=0;entryX=0;entryY=0;entryDx=0;entryDy=0;" edge="1" parent="1" source="442" target="263">
                    <mxGeometry width="50" height="50" relative="1" as="geometry">
                        <mxPoint x="110" y="430" as="sourcePoint"/>
                        <mxPoint x="110" y="170" as="targetPoint"/>
                    </mxGeometry>
                </mxCell>
                <mxCell id="538" value="B" style="rounded=0;whiteSpace=wrap;html=1;fontStyle=0;fontSize=12;fillColor=none;strokeColor=none;" vertex="1" parent="1">
                    <mxGeometry x="450" y="180" width="20" height="20" as="geometry"/>
                </mxCell>
                <mxCell id="539" value="C" style="rounded=0;whiteSpace=wrap;html=1;fontStyle=0;fontSize=12;fillColor=none;strokeColor=none;" vertex="1" parent="1">
                    <mxGeometry x="450" y="200" width="20" height="20" as="geometry"/>
                </mxCell>
                <mxCell id="540" value="A" style="rounded=0;whiteSpace=wrap;html=1;fontStyle=0;fontSize=12;fillColor=none;strokeColor=none;" vertex="1" parent="1">
                    <mxGeometry x="450" y="220" width="20" height="20" as="geometry"/>
                </mxCell>
                <mxCell id="541" value="K" style="rounded=0;whiteSpace=wrap;html=1;fontStyle=0;fontSize=12;fillColor=none;strokeColor=none;" vertex="1" parent="1">
                    <mxGeometry x="450" y="240" width="20" height="20" as="geometry"/>
                </mxCell>
                <mxCell id="542" value="L" style="rounded=0;whiteSpace=wrap;html=1;fontStyle=0;fontSize=12;fillColor=none;strokeColor=none;" vertex="1" parent="1">
                    <mxGeometry x="450" y="260" width="20" height="20" as="geometry"/>
                </mxCell>
                <mxCell id="543" value="J" style="rounded=0;whiteSpace=wrap;html=1;fontStyle=0;fontSize=12;fillColor=none;strokeColor=none;" vertex="1" parent="1">
                    <mxGeometry x="450" y="280" width="20" height="20" as="geometry"/>
                </mxCell>
                <mxCell id="544" value="F" style="rounded=0;whiteSpace=wrap;html=1;fontStyle=0;fontSize=12;fillColor=none;strokeColor=none;" vertex="1" parent="1">
                    <mxGeometry x="450" y="300" width="20" height="20" as="geometry"/>
                </mxCell>
                <mxCell id="545" value="I" style="rounded=0;whiteSpace=wrap;html=1;fontStyle=0;fontSize=12;fillColor=none;strokeColor=none;" vertex="1" parent="1">
                    <mxGeometry x="450" y="320" width="20" height="20" as="geometry"/>
                </mxCell>
                <mxCell id="546" value="B" style="rounded=0;whiteSpace=wrap;html=1;fontStyle=0;fontSize=12;fillColor=none;strokeColor=none;" vertex="1" parent="1">
                    <mxGeometry x="470" y="160" width="20" height="20" as="geometry"/>
                </mxCell>
                <mxCell id="547" value="C" style="rounded=0;whiteSpace=wrap;html=1;fontStyle=0;fontSize=12;fillColor=none;strokeColor=none;" vertex="1" parent="1">
                    <mxGeometry x="490" y="160" width="20" height="20" as="geometry"/>
                </mxCell>
                <mxCell id="548" value="A" style="rounded=0;whiteSpace=wrap;html=1;fontStyle=0;fontSize=12;fillColor=none;strokeColor=none;" vertex="1" parent="1">
                    <mxGeometry x="510" y="160" width="20" height="20" as="geometry"/>
                </mxCell>
                <mxCell id="549" value="K" style="rounded=0;whiteSpace=wrap;html=1;fontStyle=0;fontSize=12;fillColor=none;strokeColor=none;" vertex="1" parent="1">
                    <mxGeometry x="530" y="160" width="20" height="20" as="geometry"/>
                </mxCell>
                <mxCell id="550" value="L" style="rounded=0;whiteSpace=wrap;html=1;fontStyle=0;fontSize=12;fillColor=none;strokeColor=none;" vertex="1" parent="1">
                    <mxGeometry x="550" y="160" width="20" height="20" as="geometry"/>
                </mxCell>
                <mxCell id="551" value="J" style="rounded=0;whiteSpace=wrap;html=1;fontStyle=0;fontSize=12;fillColor=none;strokeColor=none;" vertex="1" parent="1">
                    <mxGeometry x="570" y="160" width="20" height="20" as="geometry"/>
                </mxCell>
                <mxCell id="552" value="F" style="rounded=0;whiteSpace=wrap;html=1;fontStyle=0;fontSize=12;fillColor=none;strokeColor=none;" vertex="1" parent="1">
                    <mxGeometry x="590" y="160" width="20" height="20" as="geometry"/>
                </mxCell>
                <mxCell id="553" value="I" style="rounded=0;whiteSpace=wrap;html=1;fontStyle=0;fontSize=12;fillColor=none;strokeColor=none;" vertex="1" parent="1">
                    <mxGeometry x="610" y="160" width="20" height="20" as="geometry"/>
                </mxCell>
                <mxCell id="554" value="•" style="rounded=0;whiteSpace=wrap;html=1;fontStyle=0;fontSize=12;fillColor=none;strokeColor=none;fontColor=#0000FF;" vertex="1" parent="1">
                    <mxGeometry x="470" y="180" width="20" height="20" as="geometry"/>
                </mxCell>
                <mxCell id="555" value="X" style="rounded=0;whiteSpace=wrap;html=1;fontStyle=0;fontSize=12;fillColor=none;strokeColor=none;" vertex="1" parent="1">
                    <mxGeometry x="470" y="240" width="20" height="20" as="geometry"/>
                </mxCell>
                <mxCell id="556" value="" style="rounded=0;whiteSpace=wrap;html=1;fontStyle=0;fontSize=12;fillColor=none;strokeColor=none;" vertex="1" parent="1">
                    <mxGeometry x="470" y="260" width="20" height="20" as="geometry"/>
                </mxCell>
                <mxCell id="557" value="X" style="rounded=0;whiteSpace=wrap;html=1;fontStyle=0;fontSize=12;fillColor=none;strokeColor=none;" vertex="1" parent="1">
                    <mxGeometry x="470" y="280" width="20" height="20" as="geometry"/>
                </mxCell>
                <mxCell id="558" value="X" style="rounded=0;whiteSpace=wrap;html=1;fontStyle=0;fontSize=12;fillColor=none;strokeColor=none;" vertex="1" parent="1">
                    <mxGeometry x="470" y="300" width="20" height="20" as="geometry"/>
                </mxCell>
                <mxCell id="560" value="" style="rounded=0;whiteSpace=wrap;html=1;fontStyle=0;fontSize=12;fillColor=none;strokeColor=none;" vertex="1" parent="1">
                    <mxGeometry x="490" y="180" width="20" height="20" as="geometry"/>
                </mxCell>
                <mxCell id="561" value="•" style="rounded=0;whiteSpace=wrap;html=1;fontStyle=0;fontSize=12;fillColor=none;strokeColor=none;fontColor=#0000FF;" vertex="1" parent="1">
                    <mxGeometry x="490" y="200" width="20" height="20" as="geometry"/>
                </mxCell>
                <mxCell id="565" value="X" style="rounded=0;whiteSpace=wrap;html=1;fontStyle=0;fontSize=12;fillColor=none;strokeColor=none;" vertex="1" parent="1">
                    <mxGeometry x="490" y="320" width="20" height="20" as="geometry"/>
                </mxCell>
                <mxCell id="567" value="" style="rounded=0;whiteSpace=wrap;html=1;fontStyle=0;fontSize=12;fillColor=none;strokeColor=none;" vertex="1" parent="1">
                    <mxGeometry x="510" y="200" width="20" height="20" as="geometry"/>
                </mxCell>
                <mxCell id="568" value="•" style="rounded=0;whiteSpace=wrap;html=1;fontStyle=0;fontSize=12;fillColor=none;strokeColor=none;fontColor=#0000FF;" vertex="1" parent="1">
                    <mxGeometry x="510" y="220" width="20" height="20" as="geometry"/>
                </mxCell>
                <mxCell id="569" value="" style="rounded=0;whiteSpace=wrap;html=1;fontStyle=0;fontSize=12;fillColor=none;strokeColor=none;" vertex="1" parent="1">
                    <mxGeometry x="510" y="280" width="20" height="20" as="geometry"/>
                </mxCell>
                <mxCell id="570" value="" style="rounded=0;whiteSpace=wrap;html=1;fontStyle=0;fontSize=12;fillColor=none;strokeColor=none;" vertex="1" parent="1">
                    <mxGeometry x="510" y="300" width="20" height="20" as="geometry"/>
                </mxCell>
                <mxCell id="571" value="" style="rounded=0;whiteSpace=wrap;html=1;fontStyle=0;fontSize=12;fillColor=none;strokeColor=none;" vertex="1" parent="1">
                    <mxGeometry x="510" y="320" width="20" height="20" as="geometry"/>
                </mxCell>
                <mxCell id="572" value="" style="rounded=0;whiteSpace=wrap;html=1;fontStyle=0;fontSize=12;fillColor=none;strokeColor=none;" vertex="1" parent="1">
                    <mxGeometry x="530" y="180" width="20" height="20" as="geometry"/>
                </mxCell>
                <mxCell id="573" value="" style="rounded=0;whiteSpace=wrap;html=1;fontStyle=0;fontSize=12;fillColor=none;strokeColor=none;" vertex="1" parent="1">
                    <mxGeometry x="530" y="200" width="20" height="20" as="geometry"/>
                </mxCell>
                <mxCell id="574" value="" style="rounded=0;whiteSpace=wrap;html=1;fontStyle=0;fontSize=12;fillColor=none;strokeColor=none;" vertex="1" parent="1">
                    <mxGeometry x="530" y="220" width="20" height="20" as="geometry"/>
                </mxCell>
                <mxCell id="575" value="•" style="rounded=0;whiteSpace=wrap;html=1;fontStyle=0;fontSize=12;fillColor=none;strokeColor=none;fontColor=#0000FF;" vertex="1" parent="1">
                    <mxGeometry x="530" y="240" width="20" height="20" as="geometry"/>
                </mxCell>
                <mxCell id="576" value="X" style="rounded=0;whiteSpace=wrap;html=1;fontStyle=0;fontSize=12;fillColor=none;strokeColor=none;" vertex="1" parent="1">
                    <mxGeometry x="530" y="260" width="20" height="20" as="geometry"/>
                </mxCell>
                <mxCell id="577" value="X" style="rounded=0;whiteSpace=wrap;html=1;fontStyle=0;fontSize=12;fillColor=none;strokeColor=none;" vertex="1" parent="1">
                    <mxGeometry x="530" y="280" width="20" height="20" as="geometry"/>
                </mxCell>
                <mxCell id="579" value="" style="rounded=0;whiteSpace=wrap;html=1;fontStyle=0;fontSize=12;fillColor=none;strokeColor=none;" vertex="1" parent="1">
                    <mxGeometry x="550" y="180" width="20" height="20" as="geometry"/>
                </mxCell>
                <mxCell id="580" value="" style="rounded=0;whiteSpace=wrap;html=1;fontStyle=0;fontSize=12;fillColor=none;strokeColor=none;" vertex="1" parent="1">
                    <mxGeometry x="550" y="200" width="20" height="20" as="geometry"/>
                </mxCell>
                <mxCell id="581" value="" style="rounded=0;whiteSpace=wrap;html=1;fontStyle=0;fontSize=12;fillColor=none;strokeColor=none;" vertex="1" parent="1">
                    <mxGeometry x="550" y="220" width="20" height="20" as="geometry"/>
                </mxCell>
                <mxCell id="583" value="•" style="rounded=0;whiteSpace=wrap;html=1;fontStyle=0;fontSize=12;fillColor=none;strokeColor=none;fontColor=#0000FF;" vertex="1" parent="1">
                    <mxGeometry x="550" y="260" width="20" height="20" as="geometry"/>
                </mxCell>
                <mxCell id="584" value="X" style="rounded=0;whiteSpace=wrap;html=1;fontStyle=0;fontSize=12;fillColor=none;strokeColor=none;" vertex="1" parent="1">
                    <mxGeometry x="550" y="300" width="20" height="20" as="geometry"/>
                </mxCell>
                <mxCell id="585" value="" style="rounded=0;whiteSpace=wrap;html=1;fontStyle=0;fontSize=12;fillColor=none;strokeColor=none;" vertex="1" parent="1">
                    <mxGeometry x="550" y="320" width="20" height="20" as="geometry"/>
                </mxCell>
                <mxCell id="586" value="" style="rounded=0;whiteSpace=wrap;html=1;fontStyle=0;fontSize=12;fillColor=none;strokeColor=none;" vertex="1" parent="1">
                    <mxGeometry x="570" y="180" width="20" height="20" as="geometry"/>
                </mxCell>
                <mxCell id="587" value="" style="rounded=0;whiteSpace=wrap;html=1;fontStyle=0;fontSize=12;fillColor=none;strokeColor=none;" vertex="1" parent="1">
                    <mxGeometry x="570" y="200" width="20" height="20" as="geometry"/>
                </mxCell>
                <mxCell id="588" value="" style="rounded=0;whiteSpace=wrap;html=1;fontStyle=0;fontSize=12;fillColor=none;strokeColor=none;" vertex="1" parent="1">
                    <mxGeometry x="570" y="220" width="20" height="20" as="geometry"/>
                </mxCell>
                <mxCell id="591" value="•" style="rounded=0;whiteSpace=wrap;html=1;fontStyle=0;fontSize=12;fillColor=none;strokeColor=none;fontColor=#0000FF;" vertex="1" parent="1">
                    <mxGeometry x="570" y="280" width="20" height="20" as="geometry"/>
                </mxCell>
                <mxCell id="592" value="X" style="rounded=0;whiteSpace=wrap;html=1;fontStyle=0;fontSize=12;fillColor=none;strokeColor=none;" vertex="1" parent="1">
                    <mxGeometry x="570" y="320" width="20" height="20" as="geometry"/>
                </mxCell>
                <mxCell id="593" value="" style="rounded=0;whiteSpace=wrap;html=1;fontStyle=0;fontSize=12;fillColor=none;strokeColor=none;" vertex="1" parent="1">
                    <mxGeometry x="590" y="180" width="20" height="20" as="geometry"/>
                </mxCell>
                <mxCell id="594" value="" style="rounded=0;whiteSpace=wrap;html=1;fontStyle=0;fontSize=12;fillColor=none;strokeColor=none;" vertex="1" parent="1">
                    <mxGeometry x="590" y="200" width="20" height="20" as="geometry"/>
                </mxCell>
                <mxCell id="595" value="" style="rounded=0;whiteSpace=wrap;html=1;fontStyle=0;fontSize=12;fillColor=none;strokeColor=none;" vertex="1" parent="1">
                    <mxGeometry x="590" y="240" width="20" height="20" as="geometry"/>
                </mxCell>
                <mxCell id="596" value="" style="rounded=0;whiteSpace=wrap;html=1;fontStyle=0;fontSize=12;fillColor=none;strokeColor=none;" vertex="1" parent="1">
                    <mxGeometry x="590" y="260" width="20" height="20" as="geometry"/>
                </mxCell>
                <mxCell id="597" value="" style="rounded=0;whiteSpace=wrap;html=1;fontStyle=0;fontSize=12;fillColor=none;strokeColor=none;" vertex="1" parent="1">
                    <mxGeometry x="590" y="280" width="20" height="20" as="geometry"/>
                </mxCell>
                <mxCell id="598" value="•" style="rounded=0;whiteSpace=wrap;html=1;fontStyle=0;fontSize=12;fillColor=none;strokeColor=none;fontColor=#0000FF;" vertex="1" parent="1">
                    <mxGeometry x="590" y="300" width="20" height="20" as="geometry"/>
                </mxCell>
                <mxCell id="599" value="" style="rounded=0;whiteSpace=wrap;html=1;fontStyle=0;fontSize=12;fillColor=none;strokeColor=none;" vertex="1" parent="1">
                    <mxGeometry x="610" y="180" width="20" height="20" as="geometry"/>
                </mxCell>
                <mxCell id="600" value="" style="rounded=0;whiteSpace=wrap;html=1;fontStyle=0;fontSize=12;fillColor=none;strokeColor=none;" vertex="1" parent="1">
                    <mxGeometry x="610" y="200" width="20" height="20" as="geometry"/>
                </mxCell>
                <mxCell id="601" value="" style="rounded=0;whiteSpace=wrap;html=1;fontStyle=0;fontSize=12;fillColor=none;strokeColor=none;" vertex="1" parent="1">
                    <mxGeometry x="610" y="220" width="20" height="20" as="geometry"/>
                </mxCell>
                <mxCell id="602" value="" style="rounded=0;whiteSpace=wrap;html=1;fontStyle=0;fontSize=12;fillColor=none;strokeColor=none;" vertex="1" parent="1">
                    <mxGeometry x="610" y="240" width="20" height="20" as="geometry"/>
                </mxCell>
                <mxCell id="604" value="" style="rounded=0;whiteSpace=wrap;html=1;fontStyle=0;fontSize=12;fillColor=none;strokeColor=none;" vertex="1" parent="1">
                    <mxGeometry x="610" y="280" width="20" height="20" as="geometry"/>
                </mxCell>
                <mxCell id="605" value="X" style="rounded=0;whiteSpace=wrap;html=1;fontStyle=0;fontSize=12;fillColor=none;strokeColor=none;" vertex="1" parent="1">
                    <mxGeometry x="610" y="300" width="20" height="20" as="geometry"/>
                </mxCell>
                <mxCell id="606" value="•" style="rounded=0;whiteSpace=wrap;html=1;fontStyle=0;fontSize=12;fillColor=none;strokeColor=none;fontColor=#0000FF;" vertex="1" parent="1">
                    <mxGeometry x="610" y="320" width="20" height="20" as="geometry"/>
                </mxCell>
                <mxCell id="607" value="E" style="rounded=0;whiteSpace=wrap;html=1;fontStyle=0;fontSize=12;fillColor=none;strokeColor=none;" vertex="1" parent="1">
                    <mxGeometry x="450" y="340" width="20" height="20" as="geometry"/>
                </mxCell>
                <mxCell id="608" value="D" style="rounded=0;whiteSpace=wrap;html=1;fontStyle=0;fontSize=12;fillColor=none;strokeColor=none;" vertex="1" parent="1">
                    <mxGeometry x="450" y="360" width="20" height="20" as="geometry"/>
                </mxCell>
                <mxCell id="609" value="H" style="rounded=0;whiteSpace=wrap;html=1;fontStyle=0;fontSize=12;fillColor=none;strokeColor=none;" vertex="1" parent="1">
                    <mxGeometry x="450" y="380" width="20" height="20" as="geometry"/>
                </mxCell>
                <mxCell id="610" value="G" style="rounded=0;whiteSpace=wrap;html=1;fontStyle=0;fontSize=12;fillColor=none;strokeColor=none;" vertex="1" parent="1">
                    <mxGeometry x="450" y="400" width="20" height="20" as="geometry"/>
                </mxCell>
                <mxCell id="611" value="E" style="rounded=0;whiteSpace=wrap;html=1;fontStyle=0;fontSize=12;fillColor=none;strokeColor=none;" vertex="1" parent="1">
                    <mxGeometry x="630" y="160" width="20" height="20" as="geometry"/>
                </mxCell>
                <mxCell id="612" value="D" style="rounded=0;whiteSpace=wrap;html=1;fontStyle=0;fontSize=12;fillColor=none;strokeColor=none;" vertex="1" parent="1">
                    <mxGeometry x="650" y="160" width="20" height="20" as="geometry"/>
                </mxCell>
                <mxCell id="613" value="H" style="rounded=0;whiteSpace=wrap;html=1;fontStyle=0;fontSize=12;fillColor=none;strokeColor=none;" vertex="1" parent="1">
                    <mxGeometry x="670" y="160" width="20" height="20" as="geometry"/>
                </mxCell>
                <mxCell id="614" value="G" style="rounded=0;whiteSpace=wrap;html=1;fontStyle=0;fontSize=12;fillColor=none;strokeColor=none;" vertex="1" parent="1">
                    <mxGeometry x="690" y="160" width="20" height="20" as="geometry"/>
                </mxCell>
                <mxCell id="615" value="" style="rounded=0;whiteSpace=wrap;html=1;fontStyle=0;fontSize=12;fillColor=none;strokeColor=none;" vertex="1" parent="1">
                    <mxGeometry x="470" y="340" width="20" height="20" as="geometry"/>
                </mxCell>
                <mxCell id="616" value="" style="rounded=0;whiteSpace=wrap;html=1;fontStyle=0;fontSize=12;fillColor=none;strokeColor=none;" vertex="1" parent="1">
                    <mxGeometry x="470" y="360" width="20" height="20" as="geometry"/>
                </mxCell>
                <mxCell id="617" value="" style="rounded=0;whiteSpace=wrap;html=1;fontStyle=0;fontSize=12;fillColor=none;strokeColor=none;" vertex="1" parent="1">
                    <mxGeometry x="470" y="380" width="20" height="20" as="geometry"/>
                </mxCell>
                <mxCell id="619" value="" style="rounded=0;whiteSpace=wrap;html=1;fontStyle=0;fontSize=12;fillColor=none;strokeColor=none;" vertex="1" parent="1">
                    <mxGeometry x="490" y="340" width="20" height="20" as="geometry"/>
                </mxCell>
                <mxCell id="622" value="" style="rounded=0;whiteSpace=wrap;html=1;fontStyle=0;fontSize=12;fillColor=none;strokeColor=none;" vertex="1" parent="1">
                    <mxGeometry x="490" y="400" width="20" height="20" as="geometry"/>
                </mxCell>
                <mxCell id="626" value="" style="rounded=0;whiteSpace=wrap;html=1;fontStyle=0;fontSize=12;fillColor=none;strokeColor=none;" vertex="1" parent="1">
                    <mxGeometry x="510" y="400" width="20" height="20" as="geometry"/>
                </mxCell>
                <mxCell id="627" value="" style="rounded=0;whiteSpace=wrap;html=1;fontStyle=0;fontSize=12;fillColor=none;strokeColor=none;" vertex="1" parent="1">
                    <mxGeometry x="530" y="340" width="20" height="20" as="geometry"/>
                </mxCell>
                <mxCell id="628" value="" style="rounded=0;whiteSpace=wrap;html=1;fontStyle=0;fontSize=12;fillColor=none;strokeColor=none;" vertex="1" parent="1">
                    <mxGeometry x="530" y="360" width="20" height="20" as="geometry"/>
                </mxCell>
                <mxCell id="629" value="" style="rounded=0;whiteSpace=wrap;html=1;fontStyle=0;fontSize=12;fillColor=none;strokeColor=none;" vertex="1" parent="1">
                    <mxGeometry x="530" y="380" width="20" height="20" as="geometry"/>
                </mxCell>
                <mxCell id="630" value="" style="rounded=0;whiteSpace=wrap;html=1;fontStyle=0;fontSize=12;fillColor=none;strokeColor=none;" vertex="1" parent="1">
                    <mxGeometry x="530" y="400" width="20" height="20" as="geometry"/>
                </mxCell>
                <mxCell id="631" value="" style="rounded=0;whiteSpace=wrap;html=1;fontStyle=0;fontSize=12;fillColor=none;strokeColor=none;" vertex="1" parent="1">
                    <mxGeometry x="550" y="360" width="20" height="20" as="geometry"/>
                </mxCell>
                <mxCell id="632" value="" style="rounded=0;whiteSpace=wrap;html=1;fontStyle=0;fontSize=12;fillColor=none;strokeColor=none;" vertex="1" parent="1">
                    <mxGeometry x="550" y="380" width="20" height="20" as="geometry"/>
                </mxCell>
                <mxCell id="633" value="" style="rounded=0;whiteSpace=wrap;html=1;fontStyle=0;fontSize=12;fillColor=none;strokeColor=none;" vertex="1" parent="1">
                    <mxGeometry x="550" y="400" width="20" height="20" as="geometry"/>
                </mxCell>
                <mxCell id="635" value="" style="rounded=0;whiteSpace=wrap;html=1;fontStyle=0;fontSize=12;fillColor=none;strokeColor=none;" vertex="1" parent="1">
                    <mxGeometry x="570" y="360" width="20" height="20" as="geometry"/>
                </mxCell>
                <mxCell id="636" value="" style="rounded=0;whiteSpace=wrap;html=1;fontStyle=0;fontSize=12;fillColor=none;strokeColor=none;" vertex="1" parent="1">
                    <mxGeometry x="570" y="380" width="20" height="20" as="geometry"/>
                </mxCell>
                <mxCell id="637" value="" style="rounded=0;whiteSpace=wrap;html=1;fontStyle=0;fontSize=12;fillColor=none;strokeColor=none;" vertex="1" parent="1">
                    <mxGeometry x="570" y="400" width="20" height="20" as="geometry"/>
                </mxCell>
                <mxCell id="638" value="X" style="rounded=0;whiteSpace=wrap;html=1;fontStyle=0;fontSize=12;fillColor=none;strokeColor=none;" vertex="1" parent="1">
                    <mxGeometry x="590" y="340" width="20" height="20" as="geometry"/>
                </mxCell>
                <mxCell id="639" value="X" style="rounded=0;whiteSpace=wrap;html=1;fontStyle=0;fontSize=12;fillColor=none;strokeColor=none;" vertex="1" parent="1">
                    <mxGeometry x="590" y="360" width="20" height="20" as="geometry"/>
                </mxCell>
                <mxCell id="640" value="" style="rounded=0;whiteSpace=wrap;html=1;fontStyle=0;fontSize=12;fillColor=none;strokeColor=none;" vertex="1" parent="1">
                    <mxGeometry x="590" y="380" width="20" height="20" as="geometry"/>
                </mxCell>
                <mxCell id="641" value="" style="rounded=0;whiteSpace=wrap;html=1;fontStyle=0;fontSize=12;fillColor=none;strokeColor=none;" vertex="1" parent="1">
                    <mxGeometry x="590" y="400" width="20" height="20" as="geometry"/>
                </mxCell>
                <mxCell id="642" value="" style="rounded=0;whiteSpace=wrap;html=1;fontStyle=0;fontSize=12;fillColor=none;strokeColor=none;" vertex="1" parent="1">
                    <mxGeometry x="610" y="340" width="20" height="20" as="geometry"/>
                </mxCell>
                <mxCell id="643" value="" style="rounded=0;whiteSpace=wrap;html=1;fontStyle=0;fontSize=12;fillColor=none;strokeColor=none;" vertex="1" parent="1">
                    <mxGeometry x="610" y="360" width="20" height="20" as="geometry"/>
                </mxCell>
                <mxCell id="644" value="X" style="rounded=0;whiteSpace=wrap;html=1;fontStyle=0;fontSize=12;fillColor=none;strokeColor=none;" vertex="1" parent="1">
                    <mxGeometry x="610" y="380" width="20" height="20" as="geometry"/>
                </mxCell>
                <mxCell id="645" value="" style="rounded=0;whiteSpace=wrap;html=1;fontStyle=0;fontSize=12;fillColor=none;strokeColor=none;" vertex="1" parent="1">
                    <mxGeometry x="610" y="400" width="20" height="20" as="geometry"/>
                </mxCell>
                <mxCell id="646" value="" style="rounded=0;whiteSpace=wrap;html=1;fontStyle=0;fontSize=12;fillColor=none;strokeColor=none;" vertex="1" parent="1">
                    <mxGeometry x="630" y="180" width="20" height="20" as="geometry"/>
                </mxCell>
                <mxCell id="647" value="" style="rounded=0;whiteSpace=wrap;html=1;fontStyle=0;fontSize=12;fillColor=none;strokeColor=none;" vertex="1" parent="1">
                    <mxGeometry x="630" y="200" width="20" height="20" as="geometry"/>
                </mxCell>
                <mxCell id="648" value="" style="rounded=0;whiteSpace=wrap;html=1;fontStyle=0;fontSize=12;fillColor=none;strokeColor=none;" vertex="1" parent="1">
                    <mxGeometry x="630" y="220" width="20" height="20" as="geometry"/>
                </mxCell>
                <mxCell id="649" value="" style="rounded=0;whiteSpace=wrap;html=1;fontStyle=0;fontSize=12;fillColor=none;strokeColor=none;" vertex="1" parent="1">
                    <mxGeometry x="630" y="240" width="20" height="20" as="geometry"/>
                </mxCell>
                <mxCell id="650" value="" style="rounded=0;whiteSpace=wrap;html=1;fontStyle=0;fontSize=12;fillColor=none;strokeColor=none;" vertex="1" parent="1">
                    <mxGeometry x="630" y="300" width="20" height="20" as="geometry"/>
                </mxCell>
                <mxCell id="652" value="" style="rounded=0;whiteSpace=wrap;html=1;fontStyle=0;fontSize=12;fillColor=none;strokeColor=none;" vertex="1" parent="1">
                    <mxGeometry x="650" y="180" width="20" height="20" as="geometry"/>
                </mxCell>
                <mxCell id="653" value="" style="rounded=0;whiteSpace=wrap;html=1;fontStyle=0;fontSize=12;fillColor=none;strokeColor=none;" vertex="1" parent="1">
                    <mxGeometry x="650" y="200" width="20" height="20" as="geometry"/>
                </mxCell>
                <mxCell id="654" value="" style="rounded=0;whiteSpace=wrap;html=1;fontStyle=0;fontSize=12;fillColor=none;strokeColor=none;" vertex="1" parent="1">
                    <mxGeometry x="650" y="220" width="20" height="20" as="geometry"/>
                </mxCell>
                <mxCell id="655" value="" style="rounded=0;whiteSpace=wrap;html=1;fontStyle=0;fontSize=12;fillColor=none;strokeColor=none;" vertex="1" parent="1">
                    <mxGeometry x="650" y="240" width="20" height="20" as="geometry"/>
                </mxCell>
                <mxCell id="656" value="" style="rounded=0;whiteSpace=wrap;html=1;fontStyle=0;fontSize=12;fillColor=none;strokeColor=none;" vertex="1" parent="1">
                    <mxGeometry x="650" y="260" width="20" height="20" as="geometry"/>
                </mxCell>
                <mxCell id="657" value="" style="rounded=0;whiteSpace=wrap;html=1;fontStyle=0;fontSize=12;fillColor=none;strokeColor=none;" vertex="1" parent="1">
                    <mxGeometry x="650" y="320" width="20" height="20" as="geometry"/>
                </mxCell>
                <mxCell id="658" value="" style="rounded=0;whiteSpace=wrap;html=1;fontStyle=0;fontSize=12;fillColor=none;strokeColor=none;" vertex="1" parent="1">
                    <mxGeometry x="670" y="180" width="20" height="20" as="geometry"/>
                </mxCell>
                <mxCell id="659" value="" style="rounded=0;whiteSpace=wrap;html=1;fontStyle=0;fontSize=12;fillColor=none;strokeColor=none;" vertex="1" parent="1">
                    <mxGeometry x="670" y="200" width="20" height="20" as="geometry"/>
                </mxCell>
                <mxCell id="660" value="" style="rounded=0;whiteSpace=wrap;html=1;fontStyle=0;fontSize=12;fillColor=none;strokeColor=none;" vertex="1" parent="1">
                    <mxGeometry x="670" y="240" width="20" height="20" as="geometry"/>
                </mxCell>
                <mxCell id="662" value="" style="rounded=0;whiteSpace=wrap;html=1;fontStyle=0;fontSize=12;fillColor=none;strokeColor=none;" vertex="1" parent="1">
                    <mxGeometry x="670" y="280" width="20" height="20" as="geometry"/>
                </mxCell>
                <mxCell id="663" value="" style="rounded=0;whiteSpace=wrap;html=1;fontStyle=0;fontSize=12;fillColor=none;strokeColor=none;" vertex="1" parent="1">
                    <mxGeometry x="690" y="180" width="20" height="20" as="geometry"/>
                </mxCell>
                <mxCell id="664" value="" style="rounded=0;whiteSpace=wrap;html=1;fontStyle=0;fontSize=12;fillColor=none;strokeColor=none;" vertex="1" parent="1">
                    <mxGeometry x="690" y="200" width="20" height="20" as="geometry"/>
                </mxCell>
                <mxCell id="665" value="" style="rounded=0;whiteSpace=wrap;html=1;fontStyle=0;fontSize=12;fillColor=none;strokeColor=none;" vertex="1" parent="1">
                    <mxGeometry x="690" y="220" width="20" height="20" as="geometry"/>
                </mxCell>
                <mxCell id="667" value="" style="rounded=0;whiteSpace=wrap;html=1;fontStyle=0;fontSize=12;fillColor=none;strokeColor=none;" vertex="1" parent="1">
                    <mxGeometry x="690" y="260" width="20" height="20" as="geometry"/>
                </mxCell>
                <mxCell id="669" value="" style="rounded=0;whiteSpace=wrap;html=1;fontStyle=0;fontSize=12;fillColor=none;strokeColor=none;" vertex="1" parent="1">
                    <mxGeometry x="690" y="300" width="20" height="20" as="geometry"/>
                </mxCell>
                <mxCell id="670" value="•" style="rounded=0;whiteSpace=wrap;html=1;fontStyle=0;fontSize=12;fillColor=none;strokeColor=none;fontColor=#0000FF;" vertex="1" parent="1">
                    <mxGeometry x="630" y="340" width="20" height="20" as="geometry"/>
                </mxCell>
                <mxCell id="671" value="X" style="rounded=0;whiteSpace=wrap;html=1;fontStyle=0;fontSize=12;fillColor=none;strokeColor=none;" vertex="1" parent="1">
                    <mxGeometry x="630" y="360" width="20" height="20" as="geometry"/>
                </mxCell>
                <mxCell id="672" value="" style="rounded=0;whiteSpace=wrap;html=1;fontStyle=0;fontSize=12;fillColor=none;strokeColor=none;" vertex="1" parent="1">
                    <mxGeometry x="630" y="380" width="20" height="20" as="geometry"/>
                </mxCell>
                <mxCell id="675" value="•" style="rounded=0;whiteSpace=wrap;html=1;fontStyle=0;fontSize=12;fillColor=none;strokeColor=none;fontColor=#0000FF;" vertex="1" parent="1">
                    <mxGeometry x="650" y="360" width="20" height="20" as="geometry"/>
                </mxCell>
                <mxCell id="676" value="X" style="rounded=0;whiteSpace=wrap;html=1;fontStyle=0;fontSize=12;fillColor=none;strokeColor=none;" vertex="1" parent="1">
                    <mxGeometry x="650" y="380" width="20" height="20" as="geometry"/>
                </mxCell>
                <mxCell id="678" value="X" style="rounded=0;whiteSpace=wrap;html=1;fontStyle=0;fontSize=12;fillColor=none;strokeColor=none;" vertex="1" parent="1">
                    <mxGeometry x="670" y="340" width="20" height="20" as="geometry"/>
                </mxCell>
                <mxCell id="680" value="•" style="rounded=0;whiteSpace=wrap;html=1;fontStyle=0;fontSize=12;fillColor=none;strokeColor=none;fontColor=#0000FF;" vertex="1" parent="1">
                    <mxGeometry x="670" y="380" width="20" height="20" as="geometry"/>
                </mxCell>
                <mxCell id="682" value="" style="rounded=0;whiteSpace=wrap;html=1;fontStyle=0;fontSize=12;fillColor=none;strokeColor=none;" vertex="1" parent="1">
                    <mxGeometry x="690" y="340" width="20" height="20" as="geometry"/>
                </mxCell>
                <mxCell id="684" value="" style="rounded=0;whiteSpace=wrap;html=1;fontStyle=0;fontSize=12;fillColor=none;strokeColor=none;" vertex="1" parent="1">
                    <mxGeometry x="690" y="380" width="20" height="20" as="geometry"/>
                </mxCell>
                <mxCell id="685" value="•" style="rounded=0;whiteSpace=wrap;html=1;fontStyle=0;fontSize=12;fillColor=none;strokeColor=none;fontColor=#0000FF;" vertex="1" parent="1">
                    <mxGeometry x="690" y="400" width="20" height="20" as="geometry"/>
                </mxCell>
                <mxCell id="686" value="" style="rounded=0;whiteSpace=wrap;html=1;fontStyle=0;fontSize=12;fillColor=none;strokeColor=none;" vertex="1" parent="1">
                    <mxGeometry x="490" y="260" width="20" height="20" as="geometry"/>
                </mxCell>
                <mxCell id="687" value="X" style="rounded=0;whiteSpace=wrap;html=1;fontStyle=0;fontSize=12;fillColor=none;strokeColor=none;" vertex="1" parent="1">
                    <mxGeometry x="490" y="240" width="20" height="20" as="geometry"/>
                </mxCell>
                <mxCell id="688" value="X" style="rounded=0;whiteSpace=wrap;html=1;fontStyle=0;fontSize=12;fillColor=none;strokeColor=none;" vertex="1" parent="1">
                    <mxGeometry x="510" y="260" width="20" height="20" as="geometry"/>
                </mxCell>
                <mxCell id="689" value="" style="rounded=0;whiteSpace=wrap;html=1;fontStyle=0;fontSize=12;fillColor=none;strokeColor=none;" vertex="1" parent="1">
                    <mxGeometry x="510" y="240" width="20" height="20" as="geometry"/>
                </mxCell>
                <mxCell id="690" value="" style="rounded=0;whiteSpace=wrap;html=1;fontStyle=0;fontSize=12;fillColor=none;strokeColor=none;" vertex="1" parent="1">
                    <mxGeometry x="470" y="220" width="20" height="20" as="geometry"/>
                </mxCell>
                <mxCell id="691" value="X" style="rounded=0;whiteSpace=wrap;html=1;fontStyle=0;fontSize=12;fillColor=none;strokeColor=none;" vertex="1" parent="1">
                    <mxGeometry x="470" y="200" width="20" height="20" as="geometry"/>
                </mxCell>
                <mxCell id="692" value="" style="rounded=0;whiteSpace=wrap;html=1;fontStyle=0;fontSize=12;fillColor=none;strokeColor=none;" vertex="1" parent="1">
                    <mxGeometry x="630" y="260" width="20" height="20" as="geometry"/>
                </mxCell>
                <mxCell id="694" value="" style="rounded=0;whiteSpace=wrap;html=1;fontStyle=0;fontSize=12;fillColor=none;strokeColor=none;" vertex="1" parent="1">
                    <mxGeometry x="650" y="280" width="20" height="20" as="geometry"/>
                </mxCell>
                <mxCell id="695" value="" style="rounded=0;whiteSpace=wrap;html=1;fontStyle=0;fontSize=12;fillColor=none;strokeColor=none;" vertex="1" parent="1">
                    <mxGeometry x="650" y="300" width="20" height="20" as="geometry"/>
                </mxCell>
                <mxCell id="698" value="" style="rounded=0;whiteSpace=wrap;html=1;fontStyle=0;fontSize=12;fillColor=none;strokeColor=none;" vertex="1" parent="1">
                    <mxGeometry x="690" y="320" width="20" height="20" as="geometry"/>
                </mxCell>
                <mxCell id="699" value="" style="endArrow=none;html=1;fontSize=12;fontColor=#0000FF;exitX=1;exitY=1;exitDx=0;exitDy=0;entryX=0;entryY=0;entryDx=0;entryDy=0;" edge="1" parent="1" source="610" target="546">
                    <mxGeometry width="50" height="50" relative="1" as="geometry">
                        <mxPoint x="530" y="330" as="sourcePoint"/>
                        <mxPoint x="580" y="280" as="targetPoint"/>
                    </mxGeometry>
                </mxCell>
                <mxCell id="700" value="" style="endArrow=none;html=1;fontSize=12;fontColor=#0000FF;exitX=1;exitY=1;exitDx=0;exitDy=0;entryX=0;entryY=0;entryDx=0;entryDy=0;" edge="1" parent="1" source="614" target="538">
                    <mxGeometry width="50" height="50" relative="1" as="geometry">
                        <mxPoint x="480" y="430" as="sourcePoint"/>
                        <mxPoint x="480" y="170" as="targetPoint"/>
                    </mxGeometry>
                </mxCell>
                <mxCell id="707" value="X" style="rounded=0;whiteSpace=wrap;html=1;fontStyle=0;fontSize=12;fillColor=none;strokeColor=none;" vertex="1" parent="1">
                    <mxGeometry x="490" y="220" width="20" height="20" as="geometry"/>
                </mxCell>
                <mxCell id="708" value="X" style="rounded=0;whiteSpace=wrap;html=1;fontStyle=0;fontSize=12;fillColor=none;strokeColor=none;" vertex="1" parent="1">
                    <mxGeometry x="490" y="280" width="20" height="20" as="geometry"/>
                </mxCell>
                <mxCell id="709" value="" style="rounded=0;whiteSpace=wrap;html=1;fontStyle=0;fontSize=12;fillColor=none;strokeColor=none;" vertex="1" parent="1">
                    <mxGeometry x="490" y="300" width="20" height="20" as="geometry"/>
                </mxCell>
                <mxCell id="710" value="" style="rounded=0;whiteSpace=wrap;html=1;fontStyle=0;fontSize=12;fillColor=none;strokeColor=none;" vertex="1" parent="1">
                    <mxGeometry x="530" y="300" width="20" height="20" as="geometry"/>
                </mxCell>
                <mxCell id="711" value="" style="rounded=0;whiteSpace=wrap;html=1;fontStyle=0;fontSize=12;fillColor=none;strokeColor=none;" vertex="1" parent="1">
                    <mxGeometry x="530" y="320" width="20" height="20" as="geometry"/>
                </mxCell>
                <mxCell id="712" value="X" style="rounded=0;whiteSpace=wrap;html=1;fontStyle=0;fontSize=12;fillColor=none;strokeColor=none;" vertex="1" parent="1">
                    <mxGeometry x="550" y="280" width="20" height="20" as="geometry"/>
                </mxCell>
                <mxCell id="714" value="" style="rounded=0;whiteSpace=wrap;html=1;fontStyle=0;fontSize=12;fillColor=none;strokeColor=none;" vertex="1" parent="1">
                    <mxGeometry x="570" y="300" width="20" height="20" as="geometry"/>
                </mxCell>
                <mxCell id="715" value="" style="rounded=0;whiteSpace=wrap;html=1;fontStyle=0;fontSize=12;fillColor=none;strokeColor=none;" vertex="1" parent="1">
                    <mxGeometry x="550" y="340" width="20" height="20" as="geometry"/>
                </mxCell>
                <mxCell id="716" value="" style="rounded=0;whiteSpace=wrap;html=1;fontStyle=0;fontSize=12;fillColor=none;strokeColor=none;" vertex="1" parent="1">
                    <mxGeometry x="570" y="340" width="20" height="20" as="geometry"/>
                </mxCell>
                <mxCell id="717" value="" style="rounded=0;whiteSpace=wrap;html=1;fontStyle=0;fontSize=12;fillColor=none;strokeColor=none;" vertex="1" parent="1">
                    <mxGeometry x="510" y="340" width="20" height="20" as="geometry"/>
                </mxCell>
                <mxCell id="718" value="" style="rounded=0;whiteSpace=wrap;html=1;fontStyle=0;fontSize=12;fillColor=none;strokeColor=none;" vertex="1" parent="1">
                    <mxGeometry x="490" y="360" width="20" height="20" as="geometry"/>
                </mxCell>
                <mxCell id="719" value="" style="rounded=0;whiteSpace=wrap;html=1;fontStyle=0;fontSize=12;fillColor=none;strokeColor=none;" vertex="1" parent="1">
                    <mxGeometry x="510" y="360" width="20" height="20" as="geometry"/>
                </mxCell>
                <mxCell id="720" value="" style="rounded=0;whiteSpace=wrap;html=1;fontStyle=0;fontSize=12;fillColor=none;strokeColor=none;" vertex="1" parent="1">
                    <mxGeometry x="490" y="380" width="20" height="20" as="geometry"/>
                </mxCell>
                <mxCell id="721" value="" style="rounded=0;whiteSpace=wrap;html=1;fontStyle=0;fontSize=12;fillColor=none;strokeColor=none;" vertex="1" parent="1">
                    <mxGeometry x="510" y="380" width="20" height="20" as="geometry"/>
                </mxCell>
                <mxCell id="722" value="" style="rounded=0;whiteSpace=wrap;html=1;fontStyle=0;fontSize=12;fillColor=none;strokeColor=none;" vertex="1" parent="1">
                    <mxGeometry x="470" y="400" width="20" height="20" as="geometry"/>
                </mxCell>
                <mxCell id="723" value="" style="rounded=0;whiteSpace=wrap;html=1;fontStyle=0;fontSize=12;fillColor=none;strokeColor=none;" vertex="1" parent="1">
                    <mxGeometry x="630" y="400" width="20" height="20" as="geometry"/>
                </mxCell>
                <mxCell id="724" value="" style="rounded=0;whiteSpace=wrap;html=1;fontStyle=0;fontSize=12;fillColor=none;strokeColor=none;" vertex="1" parent="1">
                    <mxGeometry x="650" y="400" width="20" height="20" as="geometry"/>
                </mxCell>
                <mxCell id="725" value="" style="rounded=0;whiteSpace=wrap;html=1;fontStyle=0;fontSize=12;fillColor=none;strokeColor=none;" vertex="1" parent="1">
                    <mxGeometry x="670" y="400" width="20" height="20" as="geometry"/>
                </mxCell>
                <mxCell id="726" value="" style="rounded=0;whiteSpace=wrap;html=1;fontStyle=0;fontSize=12;fillColor=none;strokeColor=none;" vertex="1" parent="1">
                    <mxGeometry x="670" y="360" width="20" height="20" as="geometry"/>
                </mxCell>
                <mxCell id="727" value="" style="rounded=0;whiteSpace=wrap;html=1;fontStyle=0;fontSize=12;fillColor=none;strokeColor=none;" vertex="1" parent="1">
                    <mxGeometry x="690" y="360" width="20" height="20" as="geometry"/>
                </mxCell>
                <mxCell id="728" value="" style="rounded=0;whiteSpace=wrap;html=1;fontStyle=0;fontSize=12;fillColor=none;strokeColor=none;" vertex="1" parent="1">
                    <mxGeometry x="670" y="300" width="20" height="20" as="geometry"/>
                </mxCell>
                <mxCell id="729" value="" style="rounded=0;whiteSpace=wrap;html=1;fontStyle=0;fontSize=12;fillColor=none;strokeColor=none;" vertex="1" parent="1">
                    <mxGeometry x="670" y="320" width="20" height="20" as="geometry"/>
                </mxCell>
                <mxCell id="730" value="" style="rounded=0;whiteSpace=wrap;html=1;fontStyle=0;fontSize=12;fillColor=none;strokeColor=none;" vertex="1" parent="1">
                    <mxGeometry x="690" y="240" width="20" height="20" as="geometry"/>
                </mxCell>
                <mxCell id="731" value="" style="rounded=0;whiteSpace=wrap;html=1;fontStyle=0;fontSize=12;fillColor=none;strokeColor=none;" vertex="1" parent="1">
                    <mxGeometry x="690" y="280" width="20" height="20" as="geometry"/>
                </mxCell>
                <mxCell id="732" value="" style="rounded=0;whiteSpace=wrap;html=1;fontStyle=0;fontSize=12;fillColor=none;strokeColor=none;" vertex="1" parent="1">
                    <mxGeometry x="570" y="240" width="20" height="20" as="geometry"/>
                </mxCell>
                <mxCell id="733" value="X" style="rounded=0;whiteSpace=wrap;html=1;fontStyle=0;fontSize=12;fillColor=none;strokeColor=none;" vertex="1" parent="1">
                    <mxGeometry x="570" y="260" width="20" height="20" as="geometry"/>
                </mxCell>
                <mxCell id="734" value="" style="rounded=0;whiteSpace=wrap;html=1;fontStyle=0;fontSize=12;fillColor=none;strokeColor=none;" vertex="1" parent="1">
                    <mxGeometry x="550" y="240" width="20" height="20" as="geometry"/>
                </mxCell>
                <mxCell id="735" value="X" style="rounded=0;whiteSpace=wrap;html=1;fontStyle=0;fontSize=12;fillColor=none;strokeColor=none;" vertex="1" parent="1">
                    <mxGeometry x="590" y="320" width="20" height="20" as="geometry"/>
                </mxCell>
                <mxCell id="736" value="X" style="rounded=0;whiteSpace=wrap;html=1;fontStyle=0;fontSize=12;fillColor=none;strokeColor=none;" vertex="1" parent="1">
                    <mxGeometry x="610" y="260" width="20" height="20" as="geometry"/>
                </mxCell>
                <mxCell id="738" value="" style="rounded=0;whiteSpace=wrap;html=1;strokeColor=#82b366;fontSize=12;fillColor=none;" vertex="1" parent="1">
                    <mxGeometry x="510" y="220" width="40" height="40" as="geometry"/>
                </mxCell>
                <mxCell id="740" value="" style="rounded=0;whiteSpace=wrap;html=1;strokeColor=#d79b00;fontSize=12;fillColor=none;" vertex="1" parent="1">
                    <mxGeometry x="550" y="260" width="80" height="80" as="geometry"/>
                </mxCell>
                <mxCell id="741" value="" style="rounded=0;whiteSpace=wrap;html=1;strokeColor=#d79b00;fontSize=12;fillColor=none;" vertex="1" parent="1">
                    <mxGeometry x="630" y="340" width="60" height="60" as="geometry"/>
                </mxCell>
                <mxCell id="742" value="Sequential" style="rounded=0;whiteSpace=wrap;html=1;fontStyle=0;fontSize=12;fillColor=none;strokeColor=none;fontColor=#6C8EBF;align=left;" vertex="1" parent="1">
                    <mxGeometry x="490" y="190" width="80" height="20" as="geometry"/>
                </mxCell>
                <mxCell id="743" value="Parallel" style="rounded=0;whiteSpace=wrap;html=1;fontStyle=0;fontSize=12;fillColor=none;strokeColor=none;fontColor=#82B366;align=left;" vertex="1" parent="1">
                    <mxGeometry x="550" y="220" width="80" height="20" as="geometry"/>
                </mxCell>
                <mxCell id="744" value="Coupled" style="rounded=0;whiteSpace=wrap;html=1;fontStyle=0;fontSize=12;fillColor=none;strokeColor=none;fontColor=#D79B00;align=left;" vertex="1" parent="1">
                    <mxGeometry x="630" y="260" width="80" height="20" as="geometry"/>
                </mxCell>
                <mxCell id="745" value="Task&lt;br&gt;Sequence" style="endArrow=block;html=1;fontSize=12;fontColor=#000000;startSize=3;endSize=3;endFill=1;strokeColor=#000000;" edge="1" parent="1">
                    <mxGeometry width="50" height="50" relative="1" as="geometry">
                        <mxPoint x="420" y="160" as="sourcePoint"/>
                        <mxPoint x="420" y="422.2857142857143" as="targetPoint"/>
                    </mxGeometry>
                </mxCell>
                <mxCell id="746" value="" style="endArrow=block;html=1;strokeColor=#000000;fontSize=12;fontColor=#000000;startSize=3;endSize=3;endFill=1;" edge="1" parent="1">
                    <mxGeometry width="50" height="50" relative="1" as="geometry">
                        <mxPoint x="350" y="290" as="sourcePoint"/>
                        <mxPoint x="390" y="290" as="targetPoint"/>
                    </mxGeometry>
                </mxCell>
            </root>
        </mxGraphModel>
    </diagram>
</mxfile>